<svg width="52" height="52" viewBox="0 0 52 52" fill="none" xmlns="http://www.w3.org/2000/svg">
<rect width="52" height="52" rx="10" fill="url(#paint0_linear_14_34)"/>
<path d="M26.232 16.744C28.344 16.744 29.896 17.232 30.888 18.208C31.896 19.184 32.4 20.464 32.4 22.048C32.4 23.136 32.144 24.08 31.632 24.88C31.136 25.68 30.456 26.304 29.592 26.752C28.744 27.184 27.776 27.4 26.688 27.4C26.304 27.4 25.896 27.368 25.464 27.304C25.032 27.224 24.584 27.104 24.12 26.944L24.336 26.272C24.464 26.624 24.568 27.064 24.648 27.592C24.744 28.104 24.816 28.64 24.864 29.2C24.928 29.744 24.96 30.248 24.96 30.712C24.96 31.832 24.688 32.688 24.144 33.28C23.616 33.872 22.816 34.168 21.744 34.168C20.928 34.168 20.288 33.976 19.824 33.592C19.376 33.192 19.056 32.544 18.864 31.648C18.688 30.752 18.6 29.56 18.6 28.072C18.6 26.056 18.72 24.336 18.96 22.912C19.216 21.488 19.576 20.352 20.04 19.504C20.504 18.656 21.264 17.984 22.32 17.488C23.376 16.992 24.68 16.744 26.232 16.744ZM25.56 23.944C26.344 23.944 26.992 23.744 27.504 23.344C28.032 22.944 28.296 22.4 28.296 21.712C28.296 21.264 28.152 20.896 27.864 20.608C27.592 20.304 27.112 20.152 26.424 20.152C25.896 20.152 25.424 20.264 25.008 20.488C24.608 20.696 24.288 20.976 24.048 21.328C23.824 21.68 23.712 22.056 23.712 22.456C23.712 22.888 23.864 23.248 24.168 23.536C24.488 23.808 24.952 23.944 25.56 23.944Z" fill="white"/>
<defs>
<linearGradient id="paint0_linear_14_34" x1="26" y1="0" x2="26" y2="52" gradientUnits="userSpaceOnUse">
<stop stop-color="#00FFA3"/>
<stop offset="1" stop-color="#DC1FFF"/>
</linearGradient>
</defs>
</svg>
